# xmcd
#
# Track frame offsets: 
#        150
#        21968
#        48117
#        80466
#        98031
#        125288
#        140015
#        160221
#        182791
#        214380
#        238897
#        260031
#
# Disc length: 3662 seconds
#
# Revision: 0
# Processed by: cddbd v1.5.2PL0 Copyright (c) Steve Scherf et al.
# Submitted via: ExactAudioCopy v0.99pb4
#
DISCID=aa0e4c0c
DTITLE=Popa Chubby - The Fight Is On
DYEAR=2010
DGENRE=Blues/Rock
TTITLE0=The Fight Is On 
TTITLE1=We Got Some Rocking To Do
TTITLE2=Another Ten Years Gone
TTITLE3=The Right Time
TTITLE4=Rock And Roll Is My Religion 
TTITLE5=Greedy For Gold
TTITLE6=Nyc 1977 Til...
TTITLE7=Holes 
TTITLE8=Steelhorse Serenade
TTITLE9=It s Over 
TTITLE10=Wicked Wanda
TTITLE11=Ace of Spades
EXTD=
EXTT0=
EXTT1=
EXTT2=
EXTT3=
EXTT4=
EXTT5=
EXTT6=
EXTT7=
EXTT8=
EXTT9=
EXTT10=
EXTT11=
PLAYORDER=
